<?xml version="1.0" standalone="no"?>
<!DOCTYPE svg PUBLIC "-//W3C//DTD SVG 20010904//EN"
 "http://www.w3.org/TR/2001/REC-SVG-20010904/DTD/svg10.dtd">
<svg version="1.0" xmlns="http://www.w3.org/2000/svg"
width="22.796" height="28" viewBox="0 0 840.000000 425.000000"
 preserveAspectRatio="xMidYMid meet">
<metadata>
Created by potrace 1.16, written by Peter Selinger 2001-2019
</metadata>
<g transform="translate(0.000000,425.000000) scale(0.100000,-0.100000)"
fill="#000000" stroke="none">
<path d="M4270 3800 c-85 -16 -272 -50 -415 -75 -143 -25 -332 -59 -420 -75
-149 -27 -421 -75 -860 -153 l-180 -32 -1 -1343 c-1 -989 1 -1344 10 -1347 11
-3 1980 -359 2036 -368 13 -2 15 23 18 170 l2 173 734 0 733 0 34 23 c19 13
39 38 46 57 9 26 12 344 12 1290 1 1222 0 1256 -19 1298 -34 75 3 72 -815 72
l-725 0 0 170 c0 156 -1 170 -17 169 -10 0 -88 -14 -173 -29z m1630 -1680 l0
-1260 -720 0 -720 0 0 130 0 130 245 0 245 0 0 145 0 145 -245 0 -245 0 0 65
0 65 245 0 245 0 0 150 0 150 -245 0 -245 0 0 65 0 65 245 0 245 0 0 150 0
150 -245 0 -245 0 0 65 0 65 245 0 245 0 0 150 0 150 -245 0 -245 0 0 65 0 65
245 0 245 0 0 150 0 150 -245 0 -245 0 0 125 0 125 720 0 720 0 0 -1260z
m-2102 601 c-1 -5 -68 -142 -147 -305 l-145 -297 147 -297 c81 -163 148 -302
147 -308 0 -12 -119 -9 -224 5 l-50 6 -85 213 c-47 116 -88 212 -91 212 -3 0
-43 -93 -90 -206 l-84 -206 -121 7 c-66 4 -122 9 -123 10 -2 2 60 129 138 283
l141 280 -134 284 -135 283 87 8 c47 4 108 6 135 5 l49 -3 70 -192 c39 -106
73 -193 77 -193 4 0 46 92 94 205 l88 204 86 4 c48 1 107 4 130 5 24 1 42 -2
40 -7z"/>
<path d="M5070 2980 l0 -150 285 0 285 0 0 150 0 150 -285 0 -285 0 0 -150z"/>
<path d="M5070 2550 l0 -150 285 0 285 0 0 150 0 150 -285 0 -285 0 0 -150z"/>
<path d="M5070 2120 l0 -150 285 0 285 0 0 150 0 150 -285 0 -285 0 0 -150z"/>
<path d="M5070 1690 l0 -150 285 0 285 0 0 150 0 150 -285 0 -285 0 0 -150z"/>
<path d="M5070 1265 l0 -145 285 0 285 0 0 145 0 145 -285 0 -285 0 0 -145z"/>
</g>
</svg>
